<svg xmlns="http://www.w3.org/2000/svg" viewBox="0 0 200 200" width="200" height="200" role="img" aria-label="sw1tchc4se avatar">
  <defs>
    <linearGradient id="bg" x1="0" y1="0" x2="1" y2="1">
      <stop offset="0" stop-color="#7FBE78"/>
      <stop offset="1" stop-color="#F5A9C4"/>
    </linearGradient>
  </defs>
  <rect width="200" height="200" fill="url(#bg)"/>
  <!-- soft flower mascot -->
  <g transform="translate(100 96)">
    <g fill="#FFE6EF">
      <ellipse cx="0" cy="-42" rx="20" ry="30"/>
      <ellipse cx="0" cy="42" rx="20" ry="30"/>
      <ellipse cx="-42" cy="0" rx="30" ry="20"/>
      <ellipse cx="42" cy="0" rx="30" ry="20"/>
      <ellipse cx="-30" cy="-30" rx="22" ry="22"/>
      <ellipse cx="30" cy="-30" rx="22" ry="22"/>
      <ellipse cx="-30" cy="30" rx="22" ry="22"/>
      <ellipse cx="30" cy="30" rx="22" ry="22"/>
    </g>
    <circle cx="0" cy="0" r="30" fill="#6FA86A"/>
    <!-- little face -->
    <circle cx="-11" cy="-3" r="3.6" fill="#243a2c"/>
    <circle cx="11" cy="-3" r="3.6" fill="#243a2c"/>
    <path d="M-8 8 q8 7 16 0" fill="none" stroke="#243a2c" stroke-width="3" stroke-linecap="round"/>
    <circle cx="-18" cy="6" r="5" fill="#F5A9C4" opacity="0.7"/>
    <circle cx="18" cy="6" r="5" fill="#F5A9C4" opacity="0.7"/>
  </g>
</svg>
